<svg id="Layer_1" data-name="Layer 1" xmlns="http://www.w3.org/2000/svg" viewBox="0 0 512 512"><defs><style>.cls-1{font-size:137.95px;font-family:EncodeSans-SemiBold, Encode Sans;letter-spacing:0.01em;}.cls-1,.cls-3,.cls-4{font-weight:700;}.cls-2{fill:none;}.cls-3{font-size:43.72px;letter-spacing:-0.02em;}.cls-3,.cls-4{font-family:EncodeSans-ExtraBold, Encode Sans;}.cls-4{font-size:43.72px;letter-spacing:-0.02em;}</style></defs><title>Sawed-off-logo</title><text class="cls-1" transform="translate(158.3 301.18)">SO</text><circle class="cls-2" cx="256" cy="253.12" r="220.45"/><text class="cls-3" transform="translate(234.04 43.6)">W</text><text class="cls-4" transform="matrix(0.87, -0.5, 0.5, 0.87, 132.25, 82.8)">W</text><text class="cls-4" transform="matrix(0.5, -0.87, 0.87, 0.5, 63.72, 167.43)">W</text><text class="cls-3" transform="translate(46.48 275.08) rotate(-90)">W</text><text class="cls-4" transform="matrix(-0.5, -0.87, 0.87, -0.5, 85.56, 377.05)">W</text><text class="cls-4" transform="matrix(-0.87, -0.5, 0.5, -0.87, 170.4, 445.6)">W</text><text class="cls-3" transform="translate(277.96 462.64) rotate(180)">W</text><text class="cls-4" transform="matrix(-0.87, 0.5, -0.5, -0.87, 379.8, 423.74)">W</text><text class="cls-4" transform="matrix(-0.5, 0.87, -0.87, -0.5, 448.58, 338.91)">W</text><text class="cls-3" transform="translate(465.52 231.16) rotate(90)">W</text><text class="cls-4" transform="matrix(0.5, 0.87, -0.87, 0.5, 426.5, 129.5)">W</text><text class="cls-4" transform="matrix(0.87, 0.5, -0.5, 0.87, 341.88, 60.74)">W</text><path d="M193.54,27,193.46,50l-6.31,1.81.56-27.35,9.54-2.74,15,22.87-6.38,1.83Z"/><path d="M88.84,88.5l11.45,20-4.56,4.72-13.19-24,6.89-7.15,24.44,12.3-4.61,4.78Z"/><path d="M28.92,194.14l19.92,11.59-1.58,6.37L23.85,197.94l2.39-9.63,27.32-1.57L52,193.19Z"/><path d="M29.86,315.58l23,.08L54.72,322l-27.36-.56-2.74-9.54,22.87-15,1.84,6.38Z"/><path d="M91.39,420.29l20-11.46,4.73,4.56-24,13.19L85,419.69l12.3-24.43,4.78,4.6Z"/><path d="M197,480.2l11.59-19.92,6.38,1.58-14.17,23.41-9.63-2.39-1.56-27.31,6.44,1.6Z"/><path d="M318.47,479.26l.07-23,6.31-1.81-.56,27.35-9.53,2.74-15-22.87,6.38-1.83Z"/><path d="M423.17,417.74l-11.46-20,4.56-4.73,13.19,24-6.89,7.14-24.43-12.29,4.61-4.78Z"/><path d="M483.08,312.1l-19.92-11.59,1.59-6.37,23.4,14.16-2.39,9.63-27.31,1.57,1.6-6.45Z"/><path d="M482.15,190.66l-23-.08-1.82-6.31,27.35.56,2.74,9.54-22.87,15L462.68,203Z"/><path d="M420.62,86l-20,11.46-4.73-4.56,24-13.19L427,86.55,414.71,111l-4.78-4.6Z"/><path d="M315,26,303.39,46,297,44.37,311.18,21l9.63,2.39,1.57,27.31-6.44-1.6Z"/></svg>